%TF.GenerationSoftware,KiCad,Pcbnew,(5.1.8)-1*%
%TF.CreationDate,2020-12-14T07:50:50+01:00*%
%TF.ProjectId,K2,4b322e6b-6963-4616-945f-706362585858,rev?*%
%TF.SameCoordinates,Original*%
%TF.FileFunction,Legend,Top*%
%TF.FilePolarity,Positive*%
%FSLAX46Y46*%
G04 Gerber Fmt 4.6, Leading zero omitted, Abs format (unit mm)*
G04 Created by KiCad (PCBNEW (5.1.8)-1) date 2020-12-14 07:50:50*
%MOMM*%
%LPD*%
G01*
G04 APERTURE LIST*
%ADD10C,0.120000*%
%ADD11C,0.150000*%
G04 APERTURE END LIST*
D10*
%TO.C,J1*%
X99314000Y-50987000D02*
X97984000Y-50987000D01*
X97984000Y-50987000D02*
X97984000Y-49657000D01*
X97984000Y-48387000D02*
X97984000Y-40707000D01*
X100644000Y-40707000D02*
X97984000Y-40707000D01*
X100644000Y-48387000D02*
X100644000Y-40707000D01*
X100644000Y-48387000D02*
X97984000Y-48387000D01*
%TO.C,J2*%
X114300000Y-30420000D02*
X115630000Y-30420000D01*
X115630000Y-30420000D02*
X115630000Y-31750000D01*
X115630000Y-33020000D02*
X115630000Y-68640000D01*
X112970000Y-68640000D02*
X115630000Y-68640000D01*
X112970000Y-33020000D02*
X112970000Y-68640000D01*
X112970000Y-33020000D02*
X115630000Y-33020000D01*
%TO.C,J3*%
X135830000Y-33020000D02*
X138490000Y-33020000D01*
X135830000Y-33020000D02*
X135830000Y-68640000D01*
X135830000Y-68640000D02*
X138490000Y-68640000D01*
X138490000Y-33020000D02*
X138490000Y-68640000D01*
X138490000Y-30420000D02*
X138490000Y-31750000D01*
X137160000Y-30420000D02*
X138490000Y-30420000D01*
%TO.C,J4*%
X133156000Y-15748000D02*
X133156000Y-17078000D01*
X133156000Y-17078000D02*
X131826000Y-17078000D01*
X130556000Y-17078000D02*
X112716000Y-17078000D01*
X112716000Y-14418000D02*
X112716000Y-17078000D01*
X130556000Y-14418000D02*
X112716000Y-14418000D01*
X130556000Y-14418000D02*
X130556000Y-17078000D01*
%TO.C,J1*%
D11*
X98980666Y-51879380D02*
X98980666Y-52593666D01*
X98933047Y-52736523D01*
X98837809Y-52831761D01*
X98694952Y-52879380D01*
X98599714Y-52879380D01*
X99980666Y-52879380D02*
X99409238Y-52879380D01*
X99694952Y-52879380D02*
X99694952Y-51879380D01*
X99599714Y-52022238D01*
X99504476Y-52117476D01*
X99409238Y-52165095D01*
%TO.C,J2*%
X113966666Y-28432380D02*
X113966666Y-29146666D01*
X113919047Y-29289523D01*
X113823809Y-29384761D01*
X113680952Y-29432380D01*
X113585714Y-29432380D01*
X114395238Y-28527619D02*
X114442857Y-28480000D01*
X114538095Y-28432380D01*
X114776190Y-28432380D01*
X114871428Y-28480000D01*
X114919047Y-28527619D01*
X114966666Y-28622857D01*
X114966666Y-28718095D01*
X114919047Y-28860952D01*
X114347619Y-29432380D01*
X114966666Y-29432380D01*
%TO.C,J3*%
X136826666Y-28432380D02*
X136826666Y-29146666D01*
X136779047Y-29289523D01*
X136683809Y-29384761D01*
X136540952Y-29432380D01*
X136445714Y-29432380D01*
X137207619Y-28432380D02*
X137826666Y-28432380D01*
X137493333Y-28813333D01*
X137636190Y-28813333D01*
X137731428Y-28860952D01*
X137779047Y-28908571D01*
X137826666Y-29003809D01*
X137826666Y-29241904D01*
X137779047Y-29337142D01*
X137731428Y-29384761D01*
X137636190Y-29432380D01*
X137350476Y-29432380D01*
X137255238Y-29384761D01*
X137207619Y-29337142D01*
%TO.C,J4*%
X134048380Y-16081333D02*
X134762666Y-16081333D01*
X134905523Y-16128952D01*
X135000761Y-16224190D01*
X135048380Y-16367047D01*
X135048380Y-16462285D01*
X134381714Y-15176571D02*
X135048380Y-15176571D01*
X134000761Y-15414666D02*
X134715047Y-15652761D01*
X134715047Y-15033714D01*
%TD*%
M02*
