%TF.GenerationSoftware,KiCad,Pcbnew,(5.1.8)-1*%
%TF.CreationDate,2020-12-14T07:50:50+01:00*%
%TF.ProjectId,K2,4b322e6b-6963-4616-945f-706362585858,rev?*%
%TF.SameCoordinates,Original*%
%TF.FileFunction,Copper,L1,Top*%
%TF.FilePolarity,Positive*%
%FSLAX46Y46*%
G04 Gerber Fmt 4.6, Leading zero omitted, Abs format (unit mm)*
G04 Created by KiCad (PCBNEW (5.1.8)-1) date 2020-12-14 07:50:50*
%MOMM*%
%LPD*%
G01*
G04 APERTURE LIST*
%TA.AperFunction,ComponentPad*%
%ADD10R,1.700000X1.700000*%
%TD*%
%TA.AperFunction,ComponentPad*%
%ADD11O,1.700000X1.700000*%
%TD*%
%TA.AperFunction,Conductor*%
%ADD12C,0.250000*%
%TD*%
G04 APERTURE END LIST*
D10*
%TO.P,J1,1*%
%TO.N,Net-(J1-Pad1)*%
X99314000Y-49657000D03*
D11*
%TO.P,J1,2*%
%TO.N,Net-(J1-Pad2)*%
X99314000Y-47117000D03*
%TO.P,J1,3*%
%TO.N,Net-(J1-Pad3)*%
X99314000Y-44577000D03*
%TO.P,J1,4*%
%TO.N,Net-(J1-Pad4)*%
X99314000Y-42037000D03*
%TD*%
D10*
%TO.P,J2,1*%
%TO.N,N/C*%
X114300000Y-31750000D03*
D11*
%TO.P,J2,2*%
X114300000Y-34290000D03*
%TO.P,J2,3*%
X114300000Y-36830000D03*
%TO.P,J2,4*%
X114300000Y-39370000D03*
%TO.P,J2,5*%
X114300000Y-41910000D03*
%TO.P,J2,6*%
%TO.N,Net-(J1-Pad4)*%
X114300000Y-44450000D03*
%TO.P,J2,7*%
%TO.N,Net-(J1-Pad3)*%
X114300000Y-46990000D03*
%TO.P,J2,8*%
%TO.N,Net-(J1-Pad1)*%
X114300000Y-49530000D03*
%TO.P,J2,9*%
%TO.N,Net-(J1-Pad2)*%
X114300000Y-52070000D03*
%TO.P,J2,10*%
%TO.N,N/C*%
X114300000Y-54610000D03*
%TO.P,J2,11*%
X114300000Y-57150000D03*
%TO.P,J2,12*%
X114300000Y-59690000D03*
%TO.P,J2,13*%
%TO.N,Net-(J2-Pad13)*%
X114300000Y-62230000D03*
%TO.P,J2,14*%
%TO.N,Net-(J2-Pad14)*%
X114300000Y-64770000D03*
%TO.P,J2,15*%
%TO.N,N/C*%
X114300000Y-67310000D03*
%TD*%
%TO.P,J3,15*%
%TO.N,N/C*%
X137160000Y-67310000D03*
%TO.P,J3,14*%
X137160000Y-64770000D03*
%TO.P,J3,13*%
X137160000Y-62230000D03*
%TO.P,J3,12*%
X137160000Y-59690000D03*
%TO.P,J3,11*%
X137160000Y-57150000D03*
%TO.P,J3,10*%
X137160000Y-54610000D03*
%TO.P,J3,9*%
X137160000Y-52070000D03*
%TO.P,J3,8*%
X137160000Y-49530000D03*
%TO.P,J3,7*%
X137160000Y-46990000D03*
%TO.P,J3,6*%
%TO.N,Net-(J3-Pad6)*%
X137160000Y-44450000D03*
%TO.P,J3,5*%
%TO.N,Net-(J3-Pad5)*%
X137160000Y-41910000D03*
%TO.P,J3,4*%
%TO.N,N/C*%
X137160000Y-39370000D03*
%TO.P,J3,3*%
X137160000Y-36830000D03*
%TO.P,J3,2*%
X137160000Y-34290000D03*
D10*
%TO.P,J3,1*%
X137160000Y-31750000D03*
%TD*%
%TO.P,J4,1*%
%TO.N,Net-(J3-Pad5)*%
X131826000Y-15748000D03*
D11*
%TO.P,J4,2*%
%TO.N,Net-(J3-Pad6)*%
X129286000Y-15748000D03*
%TO.P,J4,3*%
%TO.N,Net-(J2-Pad14)*%
X126746000Y-15748000D03*
%TO.P,J4,4*%
%TO.N,Net-(J2-Pad13)*%
X124206000Y-15748000D03*
%TO.P,J4,5*%
%TO.N,Net-(J1-Pad2)*%
X121666000Y-15748000D03*
%TO.P,J4,6*%
%TO.N,N/C*%
X119126000Y-15748000D03*
%TO.P,J4,7*%
X116586000Y-15748000D03*
%TO.P,J4,8*%
X114046000Y-15748000D03*
%TD*%
D12*
%TO.N,Net-(J1-Pad1)*%
X99441000Y-49530000D02*
X99314000Y-49657000D01*
X114300000Y-49530000D02*
X99441000Y-49530000D01*
%TO.N,Net-(J1-Pad2)*%
X114300000Y-52070000D02*
X97282000Y-52070000D01*
X97282000Y-49149000D02*
X99314000Y-47117000D01*
X97282000Y-52070000D02*
X97282000Y-49149000D01*
X120301001Y-15842999D02*
X120301001Y-46068999D01*
X120396000Y-15748000D02*
X120301001Y-15842999D01*
X120301001Y-46068999D02*
X114300000Y-52070000D01*
X121666000Y-15748000D02*
X120396000Y-15748000D01*
%TO.N,Net-(J1-Pad3)*%
X101727000Y-46990000D02*
X99314000Y-44577000D01*
X114300000Y-46990000D02*
X101727000Y-46990000D01*
%TO.N,Net-(J1-Pad4)*%
X101727000Y-44450000D02*
X99314000Y-42037000D01*
X114300000Y-44450000D02*
X101727000Y-44450000D01*
%TO.N,Net-(J2-Pad13)*%
X114300000Y-61429002D02*
X114300000Y-62230000D01*
X124206000Y-51523002D02*
X114300000Y-61429002D01*
X124206000Y-15748000D02*
X124206000Y-51523002D01*
%TO.N,Net-(J2-Pad14)*%
X114300000Y-63969002D02*
X114300000Y-64770000D01*
X126746000Y-51523002D02*
X114300000Y-63969002D01*
X126746000Y-15748000D02*
X126746000Y-51523002D01*
%TO.N,Net-(J3-Pad6)*%
X137160000Y-43649002D02*
X137160000Y-44450000D01*
X129286000Y-35775002D02*
X137160000Y-43649002D01*
X129286000Y-15748000D02*
X129286000Y-35775002D01*
%TO.N,Net-(J3-Pad5)*%
X131826000Y-15748000D02*
X131826000Y-20574000D01*
X138335001Y-40734999D02*
X137160000Y-41910000D01*
X138335001Y-27083001D02*
X138335001Y-40734999D01*
X131826000Y-20574000D02*
X138335001Y-27083001D01*
%TD*%
M02*
