M48
; DRILL file {KiCad (5.1.8)-1} date 12/14/20 07:50:56
; FORMAT={-:-/ absolute / inch / decimal}
; #@! TF.CreationDate,2020-12-14T07:50:56+01:00
; #@! TF.GenerationSoftware,Kicad,Pcbnew,(5.1.8)-1
; #@! TF.FileFunction,Plated,1,2,PTH
FMAT,2
INCH
T1C0.0394
%
G90
G05
T1
X4.5Y-1.25
X4.5Y-1.35
X4.5Y-1.45
X4.5Y-1.55
X4.5Y-1.65
X4.5Y-1.75
X4.5Y-1.85
X4.5Y-1.95
X4.5Y-2.05
X4.5Y-2.15
X4.5Y-2.25
X4.5Y-2.35
X4.5Y-2.45
X4.5Y-2.55
X4.5Y-2.65
X3.91Y-1.655
X3.91Y-1.755
X3.91Y-1.855
X3.91Y-1.955
X5.4Y-1.25
X5.4Y-1.35
X5.4Y-1.45
X5.4Y-1.55
X5.4Y-1.65
X5.4Y-1.75
X5.4Y-1.85
X5.4Y-1.95
X5.4Y-2.05
X5.4Y-2.15
X5.4Y-2.25
X5.4Y-2.35
X5.4Y-2.45
X5.4Y-2.55
X5.4Y-2.65
X4.49Y-0.62
X4.59Y-0.62
X4.69Y-0.62
X4.79Y-0.62
X4.89Y-0.62
X4.99Y-0.62
X5.09Y-0.62
X5.19Y-0.62
T0
M30
